<svg width="2081" height="385" xmlns="http://www.w3.org/2000/svg" xmlns:xlink="http://www.w3.org/1999/xlink" overflow="hidden"><defs><clipPath id="clip0"><rect x="1388" y="783" width="2081" height="385"/></clipPath><linearGradient x1="1732.25" y1="797.25" x2="1375.75" y2="1153.75" gradientUnits="userSpaceOnUse" spreadMethod="reflect" id="fill1"><stop offset="0" stop-color="#303F69" stop-opacity="1"/><stop offset="0.012987" stop-color="#31406A" stop-opacity="1"/><stop offset="0.025974" stop-color="#32416C" stop-opacity="1"/><stop offset="0.038961" stop-color="#33436E" stop-opacity="1"/><stop offset="0.0519481" stop-color="#344470" stop-opacity="1"/><stop offset="0.0649351" stop-color="#354572" stop-opacity="1"/><stop offset="0.0779221" stop-color="#374774" stop-opacity="1"/><stop offset="0.0909091" stop-color="#384875" stop-opacity="1"/><stop offset="0.103896" stop-color="#394977" stop-opacity="1"/><stop offset="0.116883" stop-color="#3A4A79" stop-opacity="1"/><stop offset="0.12987" stop-color="#3B4C7A" stop-opacity="1"/><stop offset="0.142857" stop-color="#3C4D7C" stop-opacity="1"/><stop offset="0.155844" stop-color="#3D4E7E" stop-opacity="1"/><stop offset="0.168831" stop-color="#3E4F7F" stop-opacity="1"/><stop offset="0.181818" stop-color="#3F5081" stop-opacity="1"/><stop offset="0.194805" stop-color="#405283" stop-opacity="1"/><stop offset="0.207792" stop-color="#415384" stop-opacity="1"/><stop offset="0.220779" stop-color="#425486" stop-opacity="1"/><stop offset="0.233766" stop-color="#435587" stop-opacity="1"/><stop offset="0.246753" stop-color="#445689" stop-opacity="1"/><stop offset="0.25974" stop-color="#45578A" stop-opacity="1"/><stop offset="0.272727" stop-color="#46588C" stop-opacity="1"/><stop offset="0.285714" stop-color="#47598D" stop-opacity="1"/><stop offset="0.298701" stop-color="#485A8E" stop-opacity="1"/><stop offset="0.311688" stop-color="#495B90" stop-opacity="1"/><stop offset="0.324675" stop-color="#4A5C91" stop-opacity="1"/><stop offset="0.337662" stop-color="#4A5D92" stop-opacity="1"/><stop offset="0.350649" stop-color="#4B5E94" stop-opacity="1"/><stop offset="0.363636" stop-color="#4C5F95" stop-opacity="1"/><stop offset="0.376623" stop-color="#4D6096" stop-opacity="1"/><stop offset="0.38961" stop-color="#4E6198" stop-opacity="1"/><stop offset="0.402597" stop-color="#4E6299" stop-opacity="1"/><stop offset="0.415584" stop-color="#4F639A" stop-opacity="1"/><stop offset="0.428571" stop-color="#50649B" stop-opacity="1"/><stop offset="0.441558" stop-color="#51649C" stop-opacity="1"/><stop offset="0.454545" stop-color="#51659D" stop-opacity="1"/><stop offset="0.467532" stop-color="#52669F" stop-opacity="1"/><stop offset="0.480519" stop-color="#5367A0" stop-opacity="1"/><stop offset="0.493506" stop-color="#5468A1" stop-opacity="1"/><stop offset="0.506494" stop-color="#5468A2" stop-opacity="1"/><stop offset="0.519481" stop-color="#5569A3" stop-opacity="1"/><stop offset="0.532468" stop-color="#556AA4" stop-opacity="1"/><stop offset="0.545455" stop-color="#566BA5" stop-opacity="1"/><stop offset="0.558442" stop-color="#576BA6" stop-opacity="1"/><stop offset="0.571429" stop-color="#576CA7" stop-opacity="1"/><stop offset="0.584416" stop-color="#586DA7" stop-opacity="1"/><stop offset="0.597403" stop-color="#586DA8" stop-opacity="1"/><stop offset="0.61039" stop-color="#596EA9" stop-opacity="1"/><stop offset="0.623377" stop-color="#596EAA" stop-opacity="1"/><stop offset="0.636364" stop-color="#5A6FAB" stop-opacity="1"/><stop offset="0.649351" stop-color="#5A70AC" stop-opacity="1"/><stop offset="0.662338" stop-color="#5B70AC" stop-opacity="1"/><stop offset="0.675325" stop-color="#5B71AD" stop-opacity="1"/><stop offset="0.688312" stop-color="#5C71AE" stop-opacity="1"/><stop offset="0.701299" stop-color="#5C72AE" stop-opacity="1"/><stop offset="0.714286" stop-color="#5D72AF" stop-opacity="1"/><stop offset="0.727273" stop-color="#5D73B0" stop-opacity="1"/><stop offset="0.74026" stop-color="#5E73B0" stop-opacity="1"/><stop offset="0.753247" stop-color="#5E73B1" stop-opacity="1"/><stop offset="0.766234" stop-color="#5E74B1" stop-opacity="1"/><stop offset="0.779221" stop-color="#5F74B2" stop-opacity="1"/><stop offset="0.792208" stop-color="#5F75B2" stop-opacity="1"/><stop offset="0.805195" stop-color="#5F75B3" stop-opacity="1"/><stop offset="0.818182" stop-color="#5F75B3" stop-opacity="1"/><stop offset="0.831169" stop-color="#6075B4" stop-opacity="1"/><stop offset="0.844156" stop-color="#6076B4" stop-opacity="1"/><stop offset="0.857143" stop-color="#6076B4" stop-opacity="1"/><stop offset="0.87013" stop-color="#6076B5" stop-opacity="1"/><stop offset="0.883117" stop-color="#6176B5" stop-opacity="1"/><stop offset="0.896104" stop-color="#6177B5" stop-opacity="1"/><stop offset="0.909091" stop-color="#6177B6" stop-opacity="1"/><stop offset="0.922078" stop-color="#6177B6" stop-opacity="1"/><stop offset="0.935065" stop-color="#6177B6" stop-opacity="1"/><stop offset="0.948052" stop-color="#6177B6" stop-opacity="1"/><stop offset="0.961039" stop-color="#6177B6" stop-opacity="1"/><stop offset="0.974026" stop-color="#6177B6" stop-opacity="1"/><stop offset="0.987013" stop-color="#6177B6" stop-opacity="1"/><stop offset="1" stop-color="#6278B7" stop-opacity="1"/></linearGradient><clipPath id="clip2"><rect x="1430" y="856" width="248" height="239"/></clipPath><clipPath id="clip3"><rect x="1430" y="856" width="248" height="239"/></clipPath></defs><g clip-path="url(#clip0)" transform="translate(-1388 -783)"><path d="M1554 784 1719 866.5 1719 1084.5 1554 1167 1389 1084.5 1389 866.5Z" fill="url(#fill1)" fill-rule="evenodd"/><g clip-path="url(#clip2)"><g clip-path="url(#clip3)"><path d="M189.222 33.595C171.868 33.595 171.868 59.9314 189.222 59.9314 206.576 59.9314 206.548 33.595 189.222 33.595ZM26.7814 61.5444C2.50294 61.5444 2.44731 98.421 26.7814 98.421 51.0877 98.421 51.0877 61.5444 26.7814 61.5444ZM222.622 102.314C205.269 102.314 205.269 128.651 222.622 128.651 239.976 128.651 239.976 102.314 222.622 102.314ZM186.246 195.924C168.92 195.924 168.865 222.261 186.246 222.261 203.628 222.233 203.572 195.924 186.246 195.924ZM118.222 8.50998C100.868 8.50998 100.868 34.8464 118.222 34.8464 135.576 34.8186 135.576 8.50998 118.222 8.50998ZM48.5848 194.144C31.2311 194.144 31.2311 220.481 48.5848 220.481 65.9384 220.481 65.9384 194.144 48.5848 194.144ZM91.9412 154.209C87.0743 159.882 79.4821 162.719 72.1124 161.634L61.7947 189.917C69.5538 195.813 72.5295 206.492 68.8585 215.531 98.6713 232.245 135.603 232.634 165.778 216.56 163.803 211.137 164.081 204.99 166.556 199.762L91.9412 154.209ZM78.6478 118.444 107.126 40.4641C102.481 37.7109 98.9494 33.2612 97.3642 28.1163 76.8123 32.4269 57.8734 43.273 43.6623 58.7356 55.732 68.3301 57.345 86.2679 47.1664 97.8648L65.855 120.336C69.8041 118.444 74.3094 117.777 78.6478 118.444ZM75.3384 126.871C57.9847 126.871 57.9847 153.207 75.3384 153.207 92.7199 153.18 92.6364 126.871 75.3384 126.871ZM121.476 118.166C120.697 105.902 126.454 94.7778 137.634 89.2436L121.003 43.3286C119.112 43.5789 117.193 43.5789 115.302 43.3286L86.7684 121.42C89.7998 123.283 92.3305 125.898 94.1382 128.957L121.476 118.166ZM157.462 143.974C143.529 147.284 129.068 139.914 123.589 126.676L97.0027 137.161C97.4198 140.331 97.1417 143.585 96.1684 146.616L171.729 192.782C172.564 192.031 173.453 191.363 174.399 190.752L157.462 143.974ZM179.6 119.835C178.32 128.512 173.036 136.271 165.5 140.721L182.464 187.581C187.553 186.691 192.893 187.637 197.343 190.279 209.496 175.066 217.06 156.406 218.951 137.022 210.163 135.52 202.988 128.567 201.236 119.835L179.6 119.835ZM179.6 111.158 201.208 111.158C203.238 101.007 212.277 93.6376 222.622 93.6376 248.347 93.6376 252.63 130.792 227.684 136.716 225.82 158.352 217.422 179.155 203.822 196.063 220.091 217.95 188.888 243.925 170.283 223.929 137.244 241.728 96.6411 241.283 64.0195 222.733 59.9592 226.794 54.3415 229.102 48.5848 229.102 16.2135 229.102 22.4986 178.181 53.9244 186.079L63.9639 158.631C52.4782 151.594 50.0309 135.715 58.958 125.564L40.4919 103.343C36.3482 105.763 31.6204 107.042 26.8092 107.042-8.92714 107.042-8.92714 52.8119 26.8092 52.8119 29.8962 52.8119 32.9831 53.3403 35.9032 54.3693 51.6717 36.5985 73.1413 24.1394 96.5021 19.4673 99.1163-6.47982 137.356-6.47982 139.942 19.4673 151.594 21.8034 162.83 26.0862 173.092 32.0098 186.497 17.3815 211.025 26.9205 211.025 46.7493 211.025 80.6223 157.24 71.3615 168.614 39.4351 159.437 34.1512 149.425 30.3133 139.052 28.1163 137.439 33.289 133.879 37.7665 129.207 40.4919L145.866 86.546C161.94 83.9596 177.236 95.0559 179.6 111.158ZM150.649 94.8613C123.562 94.8613 123.423 136.076 150.649 136.076 177.82 136.076 177.82 94.8613 150.649 94.8613Z" fill="#FFFFFF" fill-rule="nonzero" fill-opacity="1" transform="matrix(1.01074 0 0 1 1430.53 857)"/></g></g><text fill="#2C3B68" fill-opacity="1" font-family="Helvetica,Helvetica_MSFontService,sans-serif" font-style="normal" font-variant="normal" font-weight="700" font-stretch="normal" font-size="92" text-anchor="start" direction="ltr" writing-mode="lr-tb" unicode-bidi="normal" text-decoration="none" transform="matrix(1 0 0 1 1820.59 959)">PyGCL<tspan fill="#2C3B68" fill-opacity="1" font-family="Helvetica,Helvetica_MSFontService,sans-serif" font-style="normal" font-variant="normal" font-weight="400" font-stretch="normal" font-size="73" text-anchor="start" direction="ltr" writing-mode="lr-tb" unicode-bidi="normal" text-decoration="none" x="0" y="93">A </tspan><tspan fill="#2C3B68" fill-opacity="1" font-family="Helvetica,Helvetica_MSFontService,sans-serif" font-style="normal" font-variant="normal" font-weight="400" font-stretch="normal" font-size="73" text-anchor="start" direction="ltr" writing-mode="lr-tb" unicode-bidi="normal" text-decoration="none" x="65.3125" y="93">PyTorch</tspan><tspan fill="#2C3B68" fill-opacity="1" font-family="Helvetica,Helvetica_MSFontService,sans-serif" font-style="normal" font-variant="normal" font-weight="400" font-stretch="normal" font-size="73" text-anchor="start" direction="ltr" writing-mode="lr-tb" unicode-bidi="normal" text-decoration="none" x="350.511" y="93">Library for Graph Contrastive </tspan><tspan fill="#2C3B68" fill-opacity="1" font-family="Helvetica,Helvetica_MSFontService,sans-serif" font-style="normal" font-variant="normal" font-weight="400" font-stretch="normal" font-size="73" text-anchor="start" direction="ltr" writing-mode="lr-tb" unicode-bidi="normal" text-decoration="none" x="1317.59" y="93">Learning</tspan></text></g></svg>